<svg width="189" height="23" viewBox="0 0 189 23" fill="none" xmlns="http://www.w3.org/2000/svg">
<g id="5 star rating">
<path id="Vector 1" d="M8.17612 6.8293L12.0237 0L16.3522 6.8293L24.7688 8.00677L18.5165 14.3651L19.7189 22.3719L12.0237 18.604L4.56901 22.1364L5.77138 14.1296L0 8.24226L8.17612 6.8293Z" fill="#FAB005"/>
<path id="Vector 2" d="M49.1761 6.8293L53.0237 0L57.3522 6.8293L65.7688 8.00677L59.5165 14.3651L60.7189 22.3719L53.0237 18.604L45.569 22.1364L46.7714 14.1296L41 8.24226L49.1761 6.8293Z" fill="#FAB005"/>
<path id="Vector 3" d="M90.1761 6.8293L94.0237 0L98.3522 6.8293L106.769 8.00677L100.517 14.3651L101.719 22.3719L94.0237 18.604L86.569 22.1364L87.7714 14.1296L82 8.24226L90.1761 6.8293Z" fill="#FAB005"/>
<path id="Vector 4" d="M131.176 6.8293L135.024 0L139.352 6.8293L147.769 8.00677L141.517 14.3651L142.719 22.3719L135.024 18.604L127.569 22.1364L128.771 14.1296L123 8.24226L131.176 6.8293Z" fill="#FAB005"/>
<path id="Vector 5" d="M172.176 6.8293L176.024 0L180.352 6.8293L188.769 8.00677L182.517 14.3651L183.719 22.3719L176.024 18.604L168.569 22.1364L169.771 14.1296L164 8.24226L172.176 6.8293Z" fill="#FAB005"/>
</g>
</svg>
